<svg xmlns="http://www.w3.org/2000/svg" width="42" height="28" viewBox="0 0 42 28"><defs><linearGradient id="a" x1="14.08" x2="32.8" y1="-7.44" y2="54.9" gradientUnits="userSpaceOnUse"><stop offset="0" stop-color="#5753af"/><stop offset="1" stop-color="#9584ee"/></linearGradient><linearGradient id="b" x1="17.84" x2="26.05" y1="-8.43" y2="18.89" gradientUnits="userSpaceOnUse"><stop offset="0" stop-color="#5753af"/><stop offset="1" stop-color="#9584ee"/></linearGradient></defs><path fill="url(#a)" d="M40.06 28.122H2.145c-.8 0-1.426-.628-1.426-1.43V4.98h40.8v21.711c0 .803-.66 1.431-1.46 1.431z"/><path fill="url(#b)" d="M41.52 3.48H.72V1.666C.72.758 1.45-.01 2.39-.01h37.495c.905 0 1.67.733 1.67 1.675v1.816z"/><path fill="#45e8eb" d="M3.71 2.685a.94.94 0 0 0 .938-.943A.94.94 0 0 0 3.71.8a.94.94 0 0 0-.939.942c0 .521.42.943.94.943zM6.64 2.685a.94.94 0 0 0 .938-.943A.94.94 0 0 0 6.64.8a.94.94 0 0 0-.939.942c0 .521.42.943.94.943zM9.7 2.685a.94.94 0 0 0 .938-.943A.94.94 0 0 0 9.7.8a.94.94 0 0 0-.939.942c0 .521.42.943.94.943z"/><g><path fill="#fff" d="M10.39 14.965h1.078l.905 3.107 1.008-3.142h.87l1.009 3.142.939-3.107h1.043l-1.495 4.573h-.94L13.8 16.43l-1.009 3.107h-.94zM17.7 14.965h1.078l.905 3.107 1.008-3.142h.87l1.009 3.142.939-3.107h1.043l-1.495 4.573h-.94L21.11 16.43l-1.01 3.108h-.94zM25 14.965h1.078l.905 3.107 1.008-3.142h.87l1.009 3.142.939-3.107h1.043l-1.495 4.573h-.94L28.41 16.43l-1.01 3.108h-.94z"/></g></svg>