<svg xmlns="http://www.w3.org/2000/svg" width="36" height="36" viewBox="0 0 36 36"><defs><linearGradient id="a" x1="13.01" x2="22.07" y1="-5.74" y2="14.14" gradientUnits="userSpaceOnUse"><stop offset="0" stop-color="#5753af"/><stop offset="1" stop-color="#9584ee"/></linearGradient><linearGradient id="b" x1="15.39" x2="22.02" y1="11.24" y2="27.56" gradientUnits="userSpaceOnUse"><stop offset="0" stop-color="#5753af"/><stop offset="1" stop-color="#9584ee"/></linearGradient><linearGradient id="c" x1="13.69" x2="25.17" y1="21.49" y2="44.72" gradientUnits="userSpaceOnUse"><stop offset="0" stop-color="#5753af"/><stop offset="1" stop-color="#9584ee"/></linearGradient></defs><path fill="url(#a)" d="M33.03 10.257H3.185C1.48 10.257.09 8.85.09 7.124v-3.31C.09 2.088 1.481.68 3.186.68h29.843c1.704 0 3.096 1.408 3.096 3.134v3.31c.035 1.725-1.392 3.133-3.096 3.133z"/><path fill="#fff" d="M24.367 6.483H4.053A1.031 1.031 0 0 1 3.01 5.426c0-.598.452-1.056 1.043-1.056h20.314c.59 0 1.043.458 1.043 1.056 0 .599-.487 1.057-1.043 1.057z"/><path fill="#45e8eb" d="M28.123 6.523a1.05 1.05 0 0 0 1.044-1.057 1.05 1.05 0 0 0-1.044-1.056 1.05 1.05 0 0 0-1.043 1.056 1.05 1.05 0 0 0 1.043 1.057zM31.253 6.523a1.05 1.05 0 0 0 1.044-1.057 1.05 1.05 0 0 0-1.044-1.056 1.05 1.05 0 0 0-1.043 1.056 1.05 1.05 0 0 0 1.043 1.057z"/><g><path fill="url(#b)" d="M33.03 22.717H3.185C1.48 22.717.09 21.31.09 19.584v-3.31c0-1.726 1.391-3.134 3.096-3.134h29.843c1.704 0 3.096 1.408 3.096 3.134v3.31c.035 1.725-1.392 3.133-3.096 3.133z"/><path fill="#fff" d="M24.367 18.983H4.053a1.031 1.031 0 0 1-1.043-1.057c0-.598.452-1.056 1.043-1.056h20.314c.59 0 1.043.458 1.043 1.056 0 .599-.487 1.057-1.043 1.057z"/><path fill="#45e8eb" d="M28.123 18.983a1.05 1.05 0 0 0 1.044-1.057 1.05 1.05 0 0 0-1.044-1.056 1.05 1.05 0 0 0-1.043 1.056 1.05 1.05 0 0 0 1.043 1.057zM31.253 18.983a1.05 1.05 0 0 0 1.044-1.057 1.05 1.05 0 0 0-1.044-1.056 1.05 1.05 0 0 0-1.043 1.056 1.05 1.05 0 0 0 1.043 1.057z"/></g><g><path fill="url(#c)" d="M33.03 35.257H3.185C1.48 35.257.09 33.85.09 32.124v-3.31c0-1.726 1.391-3.134 3.096-3.134h29.843c1.704 0 3.096 1.408 3.096 3.134v3.31c.035 1.725-1.392 3.133-3.096 3.133z"/><path fill="#fff" d="M24.367 31.483H4.053a1.031 1.031 0 0 1-1.043-1.057c0-.598.452-1.056 1.043-1.056h20.314c.59 0 1.043.458 1.043 1.056 0 .599-.487 1.057-1.043 1.057z"/><path fill="#45e8eb" d="M28.123 31.523a1.05 1.05 0 0 0 1.044-1.057 1.05 1.05 0 0 0-1.044-1.056 1.05 1.05 0 0 0-1.043 1.056 1.05 1.05 0 0 0 1.043 1.057zM31.253 31.523a1.05 1.05 0 0 0 1.044-1.057 1.05 1.05 0 0 0-1.044-1.056 1.05 1.05 0 0 0-1.043 1.056 1.05 1.05 0 0 0 1.043 1.057z"/></g></svg>