<svg xmlns="http://www.w3.org/2000/svg" width="43" height="35" viewBox="0 0 43 35"><defs><linearGradient id="a" x1="23.35" x2="7.79" y1="6.85" y2="36.63" gradientUnits="userSpaceOnUse"><stop offset="0" stop-color="#5753af"/><stop offset="1" stop-color="#9584ee"/></linearGradient><linearGradient id="b" x1="18.88" x2="34.44" y1="-6.85" y2="22.92" gradientUnits="userSpaceOnUse"><stop offset="0" stop-color="#5753af"/><stop offset="1" stop-color="#9584ee"/></linearGradient></defs><path fill="url(#a)" d="M6.981 31.656h17.392c1.808 0 3.27-1.479 3.27-3.31V18.91c0-1.831-1.462-3.31-3.27-3.31H4.86c-1.81 0-3.27 1.479-3.27 3.31v14.93c0 .739.835 1.161 1.391.739z"/><path fill="#fff" d="M21.526 22.503H5.073a1.031 1.031 0 0 1-1.043-1.057c0-.598.452-1.056 1.043-1.056h16.453c.591 0 1.043.458 1.043 1.056 0 .599-.452 1.057-1.043 1.057zM16.97 26.193H5.072a1.031 1.031 0 0 1-1.043-1.057c0-.598.452-1.056 1.043-1.056H16.97c.591 0 1.044.458 1.044 1.056 0 .599-.453 1.057-1.044 1.057z"/><path fill="#f9f0ff" d="M30.637 19.405H17.35c-2.227 0-4.07-1.83-4.07-4.12V11.87h17.357v7.535z"/><path fill="url(#b)" d="M35.23 17.926H17.84c-1.81 0-3.27-1.479-3.27-3.31V5.18c0-1.831 1.46-3.31 3.27-3.31h19.547c1.81 0 3.27 1.479 3.27 3.31v14.93c0 .739-.835 1.161-1.391.739z"/><path fill="#fff" d="M34.846 8.803H18.393a1.031 1.031 0 0 1-1.043-1.057c0-.598.452-1.056 1.043-1.056h16.453c.591 0 1.043.458 1.043 1.056 0 .599-.487 1.057-1.043 1.057zM30.29 12.923H18.392a1.031 1.031 0 0 1-1.043-1.057c0-.598.452-1.056 1.043-1.056H30.29c.591 0 1.044.458 1.044 1.056 0 .599-.487 1.057-1.044 1.057z"/><g><path fill="#45e8eb" d="M2.5 19.29c1.401 0 2.538-1.15 2.538-2.57S3.901 14.15 2.5 14.15c-1.402 0-2.539 1.15-2.539 2.57s1.137 2.57 2.54 2.57z"/></g><g><path fill="#45e8eb" d="M39.78 5.46c1.401 0 2.538-1.15 2.538-2.57S41.181.32 39.78.32c-1.402 0-2.539 1.15-2.539 2.57s1.137 2.57 2.54 2.57z"/></g></svg>