<svg xmlns="http://www.w3.org/2000/svg" width="50" height="35" viewBox="0 0 50 35"><defs><linearGradient id="a" x1="12.48" x2="33.31" y1="-11.07" y2="58.26" gradientUnits="userSpaceOnUse"><stop offset="0" stop-color="#5753af"/><stop offset="1" stop-color="#9584ee"/></linearGradient><linearGradient id="b" x1="17.2" x2="38.04" y1="-12.51" y2="56.84" gradientUnits="userSpaceOnUse"><stop offset="0" stop-color="#5753af"/><stop offset="1" stop-color="#9584ee"/></linearGradient></defs><path fill="url(#a)" d="M48.794 29.57H29.872l-.382 1.222h-8.348l-.557-1.222H1.49a.863.863 0 0 0-.87.873v1.047a2.996 2.996 0 0 0 2.991 3.002h43.026a2.996 2.996 0 0 0 2.992-3.002v-1.047c.034-.489-.348-.873-.835-.873z"/><path fill="url(#b)" d="M43.995 27.72H6.325a1.56 1.56 0 0 1-1.565-1.57V1.75c0-.872.696-1.57 1.565-1.57h37.67c.87 0 1.565.698 1.565 1.57v24.4c0 .872-.696 1.57-1.565 1.57z"/><path fill="#45e8eb" d="M41.213 33.164c.653 0 1.182-.532 1.182-1.187 0-.656-.53-1.187-1.182-1.187-.654 0-1.183.531-1.183 1.187 0 .655.53 1.187 1.183 1.187zM44.863 33.164c.653 0 1.182-.532 1.182-1.187 0-.656-.53-1.187-1.182-1.187-.654 0-1.183.531-1.183 1.187 0 .655.53 1.187 1.183 1.187z"/><g><path fill="#fff" d="M19.883 14.386a1 1 0 0 1-.73-.314c-.417-.419-.417-1.082 0-1.466l6.609-6.632c.417-.419 1.078-.419 1.46 0 .418.419.418 1.082 0 1.466l-6.608 6.632c-.209.21-.487.314-.73.314zM19.89 21.678c-.278 0-.556-.105-.73-.315a1.045 1.045 0 0 1 0-1.466L33.77 5.551a1.036 1.036 0 0 1 1.46 0 1.045 1.045 0 0 1 0 1.466L20.622 21.363c-.209.245-.487.315-.73.315z"/></g></svg>