<svg xmlns="http://www.w3.org/2000/svg" width="41" height="38" viewBox="0 0 41 38"><defs><linearGradient id="a" x1="19.94" x2="19.94" y1="36" y2="24.64" gradientUnits="userSpaceOnUse"><stop offset="0" stop-color="#5753af"/><stop offset="1" stop-color="#9584ee"/></linearGradient><linearGradient id="b" x1="14.39" x2="25.7" y1="-11.06" y2="22.49" gradientUnits="userSpaceOnUse"><stop offset="0" stop-color="#5753af"/><stop offset="1" stop-color="#9584ee"/></linearGradient><linearGradient id="c" x1="14.39" x2="25.7" y1="2.75" y2="36.3" gradientUnits="userSpaceOnUse"><stop offset="0" stop-color="#5753af"/><stop offset="1" stop-color="#9584ee"/></linearGradient><linearGradient id="d" x1="2.14" x2="37.89" y1="35.3" y2="35.3" gradientUnits="userSpaceOnUse"><stop offset="0" stop-color="#5753af"/><stop offset="1" stop-color="#9584ee"/></linearGradient></defs><path fill="url(#a)" d="M19.926 36.004a.699.699 0 0 1-.696-.698v-9.948c0-.384.313-.698.696-.698.382 0 .695.314.695.698v9.948a.699.699 0 0 1-.695.698z"/><path fill="url(#b)" d="M39.553 11.534H.596a.625.625 0 0 1-.626-.628V.748C-.03.4.248.12.596.12h38.957c.347 0 .626.28.626.628v10.158a.625.625 0 0 1-.626.628z"/><path fill="#fff" d="M6.433 8.565a2.718 2.718 0 0 0 2.713-2.722A2.718 2.718 0 0 0 6.433 3.12 2.718 2.718 0 0 0 3.72 5.843a2.718 2.718 0 0 0 2.713 2.722z"/><path fill="#45e8eb" d="M19.93 5.356c.442 0 .8-.36.8-.803a.801.801 0 0 0-.8-.803c-.442 0-.8.36-.8.803 0 .443.358.803.8.803zM23.69 5.356c.442 0 .8-.36.8-.803a.801.801 0 0 0-.8-.803c-.442 0-.8.36-.8.803 0 .443.358.803.8.803zM27.41 5.356c.442 0 .8-.36.8-.803a.801.801 0 0 0-.8-.803c-.442 0-.8.36-.8.803 0 .443.358.803.8.803zM31.17 5.356c.442 0 .8-.36.8-.803a.801.801 0 0 0-.8-.803c-.442 0-.8.36-.8.803 0 .443.358.803.8.803z"/><g><path fill="#45e8eb" d="M21.81 8.256c.442 0 .8-.36.8-.803a.801.801 0 0 0-.8-.803c-.442 0-.8.36-.8.803 0 .443.358.803.8.803zM25.57 8.256c.442 0 .8-.36.8-.803a.801.801 0 0 0-.8-.803c-.442 0-.8.36-.8.803 0 .443.358.803.8.803zM29.29 8.256c.442 0 .8-.36.8-.803a.801.801 0 0 0-.8-.803c-.442 0-.8.36-.8.803 0 .443.358.803.8.803zM33.04 8.256c.442 0 .8-.36.8-.803a.801.801 0 0 0-.8-.803c-.442 0-.8.36-.8.803 0 .443.358.803.8.803z"/></g><g><path fill="url(#c)" d="M39.553 25.324H.596a.625.625 0 0 1-.626-.628V14.538c0-.349.278-.628.626-.628h38.957c.347 0 .626.28.626.628v10.158a.604.604 0 0 1-.626.628z"/><path fill="#fff" d="M6.433 22.355a2.718 2.718 0 0 0 2.713-2.722 2.718 2.718 0 0 0-2.713-2.723 2.718 2.718 0 0 0-2.713 2.723 2.718 2.718 0 0 0 2.713 2.722z"/><path fill="#45e8eb" d="M19.93 19.176c.442 0 .8-.36.8-.803a.801.801 0 0 0-.8-.803c-.442 0-.8.36-.8.803 0 .443.358.803.8.803zM23.69 19.176c.442 0 .8-.36.8-.803a.801.801 0 0 0-.8-.803c-.442 0-.8.36-.8.803 0 .443.358.803.8.803zM27.41 19.176c.442 0 .8-.36.8-.803a.801.801 0 0 0-.8-.803c-.442 0-.8.36-.8.803 0 .443.358.803.8.803zM31.17 19.176c.442 0 .8-.36.8-.803a.801.801 0 0 0-.8-.803c-.442 0-.8.36-.8.803 0 .443.358.803.8.803z"/><g><path fill="#45e8eb" d="M21.81 22.036c.442 0 .8-.36.8-.803a.801.801 0 0 0-.8-.803c-.442 0-.8.36-.8.803 0 .443.358.803.8.803zM25.57 22.036c.442 0 .8-.36.8-.803a.801.801 0 0 0-.8-.803c-.442 0-.8.36-.8.803 0 .443.358.803.8.803zM29.29 22.036c.442 0 .8-.36.8-.803a.801.801 0 0 0-.8-.803c-.442 0-.8.36-.8.803 0 .443.358.803.8.803zM33.04 22.036c.442 0 .8-.36.8-.803a.801.801 0 0 0-.8-.803c-.442 0-.8.36-.8.803 0 .443.358.803.8.803z"/></g></g><g><path fill="url(#d)" d="M37.18 35.996H2.817a.699.699 0 0 1 0-1.396H37.18a.699.699 0 0 1 0 1.396z"/></g><g><path fill="#45e8eb" d="M19.93 37.777c1.363 0 2.47-1.11 2.47-2.479a2.474 2.474 0 0 0-2.47-2.478 2.474 2.474 0 0 0-2.47 2.478 2.474 2.474 0 0 0 2.47 2.479z"/></g><g><path fill="#45e8eb" d="M2.85 37.777c1.363 0 2.47-1.11 2.47-2.479a2.474 2.474 0 0 0-2.47-2.478 2.474 2.474 0 0 0-2.47 2.478 2.474 2.474 0 0 0 2.47 2.479z"/></g><g><path fill="#45e8eb" d="M37.18 37.777c1.363 0 2.47-1.11 2.47-2.479a2.474 2.474 0 0 0-2.47-2.478 2.474 2.474 0 0 0-2.47 2.478 2.474 2.474 0 0 0 2.47 2.479z"/></g></svg>