<svg xmlns="http://www.w3.org/2000/svg" width="40" height="31" viewBox="0 0 40 31"><defs><linearGradient id="a" x1="11.44" x2="24.86" y1="-7.04" y2="32.31" gradientUnits="userSpaceOnUse"><stop offset="0" stop-color="#5753af"/><stop offset="1" stop-color="#9584ee"/></linearGradient><linearGradient id="b" x1="15.92" x2="29.34" y1="-7.77" y2="31.63" gradientUnits="userSpaceOnUse"><stop offset="0" stop-color="#5753af"/><stop offset="1" stop-color="#9584ee"/></linearGradient></defs><path fill="url(#a)" d="M37.57 30.537H2.613A1.106 1.106 0 0 1 1.5 29.41V7.227c0-.634.487-1.127 1.113-1.127H37.57c.626 0 1.113.493 1.113 1.127V29.41c0 .634-.522 1.127-1.113 1.127z"/><path fill="#45e8eb" d="M36.314 28.743h-6.435c-.07 0-.139-.07-.139-.14V26.7c0-.07.07-.141.14-.141h6.434c.07 0 .139.07.139.14v1.902c0 .07-.07.141-.14.141z"/><path fill="#fff" d="M38.676 16.063H1.493A1.031 1.031 0 0 1 .45 15.006c0-.598.452-1.056 1.043-1.056h37.148c.592 0 1.044.458 1.044 1.056 0 .599-.452 1.057-1.009 1.057z"/><path fill="url(#b)" d="M29.185 7.291a1.031 1.031 0 0 1-1.044-1.056V2.89a.314.314 0 0 0-.313-.317H12.35a.314.314 0 0 0-.313.317v3.345c0 .598-.452 1.056-1.044 1.056A1.031 1.031 0 0 1 9.95 6.235V2.89c0-1.338 1.078-2.43 2.4-2.43h15.478c1.322 0 2.4 1.092 2.4 2.43v3.345c0 .598-.487 1.056-1.043 1.056z"/><path fill="#fff" d="M23.513 20.432h-6.852c-1.634 0-2.991-1.373-2.991-3.028v-2.078c0-.598.452-1.056 1.043-1.056.592 0 1.044.458 1.044 1.056v2.078c0 .493.417.915.904.915h6.852a.927.927 0 0 0 .905-.915v-2.078c0-.598.452-1.056 1.043-1.056.592 0 1.044.458 1.044 1.056v2.078c0 1.69-1.357 3.028-2.992 3.028z"/></svg>